<svg xmlns="http://www.w3.org/2000/svg" width="64" height="64" viewBox="0 0 256 256">
  <defs>
    <linearGradient id="h" x1="0" y1="0" x2="1" y2="1">
      <stop offset="0" stop-color="#8b93ff"/>
      <stop offset="1" stop-color="#7c3aed"/>
    </linearGradient>
    <radialGradient id="s" cx="0.5" cy="0.4" r="0.8">
      <stop offset="0" stop-color="#312e81"/>
      <stop offset="1" stop-color="#0f0d2b"/>
    </radialGradient>
    <linearGradient id="e" x1="0" y1="0" x2="0" y2="1">
      <stop offset="0" stop-color="#e0f2fe"/>
      <stop offset="1" stop-color="#7dd3fc"/>
    </linearGradient>
  </defs>
  <path d="M128 60 L128 34" stroke="#8b93ff" stroke-width="10" stroke-linecap="round"/>
  <circle cx="128" cy="26" r="16" fill="#22d3ee"/>
  <rect x="24" y="118" width="30" height="62" rx="15" fill="#5b21b6"/>
  <rect x="202" y="118" width="30" height="62" rx="15" fill="#5b21b6"/>
  <rect x="40" y="62" width="176" height="168" rx="54" fill="url(#h)"/>
  <rect x="64" y="96" width="128" height="102" rx="34" fill="url(#s)"/>
  <rect x="90" y="126" width="24" height="32" rx="12" fill="url(#e)"/>
  <rect x="142" y="126" width="24" height="32" rx="12" fill="url(#e)"/>
  <g fill="#67e8f9">
    <rect x="106" y="170" width="6" height="10" rx="3"/>
    <rect x="117" y="164" width="6" height="22" rx="3"/>
    <rect x="128" y="168" width="6" height="14" rx="3"/>
    <rect x="139" y="171" width="6" height="8" rx="3"/>
  </g>
</svg>
